<svg width="800" height="600" xmlns="http://www.w3.org/2000/svg">

 <g>
  <title>background</title>
  <rect fill="none" id="canvas_background" height="514" width="514" y="-1" x="-1"/>
 </g>
 <g stroke="null" id="Layer_1">
  <title>Layer 1</title>
  <path id="svg_18" d="m146.656816,629.965186l112.08559,-190.85483l112.08558,190.85483l-224.17116,0l-0.00001,0z" fill="#1a2224" stroke="null"/>
  <path id="svg_4" d="m429.726341,629.96519l112.08559,-190.85483l112.08558,190.85483l-224.17116,0l-0.00001,0z" fill="#1a2224" stroke="null"/>
  <path stroke="#121818" id="svg_14" d="m4.16228,617.57201l151.26737,-257.57201l151.26735,257.57201l-302.53472,0z" fill="#121818"/>
  <path id="svg_20" d="m244.04355,485.38505l12.84648,-23.12367l12.84648,23.12367l-12.84648,23.12367l-12.84648,-23.12367z" fill="#00f29c" stroke="#null"/>
  <path stroke="#121818" id="svg_16" d="m176.692521,676.987099l224.500735,-382.270849l224.500725,382.270849l-449.00146,0l0,0z" fill="#121818"/>
  <path id="svg_5" d="m528.678407,485.38505l12.84648,-23.12367l12.84648,23.12367l-12.84648,23.12367l-12.84648,-23.12367z" fill="#00f29c" stroke="#null"/>
  <path stroke="#121818" id="svg_6" d="m492.733752,617.57201l151.26737,-257.57201l151.26735,257.57201l-302.53472,0z" fill="#121818"/>
 </g>
</svg>